<?xml version="1.0" encoding="UTF-8" standalone="no"?>
<!DOCTYPE svg PUBLIC "-//W3C//DTD SVG 1.1//EN" "http://www.w3.org/Graphics/SVG/1.1/DTD/svg11.dtd">
<svg version="1.1" xmlns="http://www.w3.org/2000/svg" xmlns:xlink="http://www.w3.org/1999/xlink" preserveAspectRatio="xMidYMid meet" viewBox="-1 -1 516 516" width="512" height="512"><defs><path d="M0 256C0 397.36 114.64 512 256 512C397.36 512 512 397.36 512 256C512 114.64 397.36 0 256 0C114.64 0 0 114.64 0 256Z" id="aC6QaQSYF"></path><path d="M0 256C0 397.36 114.64 512 256 512C397.36 512 512 397.36 512 256C512 114.64 397.36 0 256 0C114.64 0 0 114.64 0 256Z" id="iJKkCzqFq"></path><path d="M128 432C153.6 432 358.4 432 384 432C401.68 432 416 417.68 416 400C416 386.64 416 320 416 200C384 200 128 200 96 200C96 320 96 386.64 96 400C96 417.68 110.32 432 128 432Z" id="azNfdR2NY"></path><path d="M128 432C153.6 432 358.4 432 384 432C401.68 432 416 417.68 416 400C416 386.64 416 320 416 200C384 200 128 200 96 200C96 320 96 386.64 96 400C96 417.68 110.32 432 128 432Z" id="a96smIpqg"></path><path d="M128 416C153.6 416 358.4 416 384 416C401.68 416 416 401.68 416 384C416 370.64 416 304 416 184C384 184 128 184 96 184C96 304 96 370.64 96 384C96 401.68 110.32 416 128 416Z" id="d4FLEW6Mrt"></path><path d="M128 416C153.6 416 358.4 416 384 416C401.68 416 416 401.68 416 384C416 370.64 416 304 416 184C384 184 128 184 96 184C96 304 96 370.64 96 384C96 401.68 110.32 416 128 416Z" id="d23iHChyKo"></path><path d="M96 144C96 147.76 96 166.4 96 200C128 200 384 200 416 200C416 166.4 416 147.76 416 144C416 126.32 401.68 112 384 112C332.8 112 153.6 112 128 112C110.32 112 96 126.32 96 144Z" id="ahpt7MwQM"></path><path d="M96 144C96 147.76 96 166.4 96 200C128 200 384 200 416 200C416 166.4 416 147.76 416 144C416 126.32 401.68 112 384 112C332.8 112 153.6 112 128 112C110.32 112 96 126.32 96 144Z" id="fgcybjxbX"></path><path d="M96 128C96 131.76 96 150.4 96 184C128 184 384 184 416 184C416 150.4 416 131.76 416 128C416 110.32 401.68 96 384 96C332.8 96 153.6 96 128 96C110.32 96 96 110.32 96 128Z" id="fdvQNmrb0"></path><path d="M96 128C96 131.76 96 150.4 96 184C128 184 384 184 416 184C416 150.4 416 131.76 416 128C416 110.32 401.68 96 384 96C332.8 96 153.6 96 128 96C110.32 96 96 110.32 96 128Z" id="a18H1wkcC8"></path><path d="M144 96C144 87.2 151.2 80 160 80C160 80 160 80 160 80C168.88 80 176 87.2 176 96C176 101.6 176 146.4 176 152C176 160.88 168.88 168 160 168C160 168 160 168 160 168C149.36 163.2 144 157.92 144 152C144 146.4 144 101.6 144 96Z" id="aNaQFflH2"></path><path d="M144 96C144 87.2 151.2 80 160 80C160 80 160 80 160 80C168.88 80 176 87.2 176 96C176 101.6 176 146.4 176 152C176 160.88 168.88 168 160 168C160 168 160 168 160 168C149.36 163.2 144 157.92 144 152C144 146.4 144 101.6 144 96Z" id="c2Op4S9jo"></path><path d="M344 96C344 87.2 351.2 80 360 80C360 80 360 80 360 80C368.88 80 376 87.2 376 96C376 101.6 376 146.4 376 152C376 160.88 368.88 168 360 168C360 168 360 168 360 168C349.36 163.2 344 157.92 344 152C344 146.4 344 101.6 344 96Z" id="cQCFsse2i"></path><path d="M344 96C344 87.2 351.2 80 360 80C360 80 360 80 360 80C368.88 80 376 87.2 376 96C376 101.6 376 146.4 376 152C376 160.88 368.88 168 360 168C360 168 360 168 360 168C349.36 163.2 344 157.92 344 152C344 146.4 344 101.6 344 96Z" id="c1UupBvqDU"></path><path d="M144 80C144 71.2 151.2 64 160 64C160 64 160 64 160 64C168.88 64 176 71.2 176 80C176 85.6 176 130.4 176 136C176 144.88 168.88 152 160 152C160 152 160 152 160 152C149.36 147.2 144 141.92 144 136C144 130.4 144 85.6 144 80Z" id="a1dYyrtPvV"></path><path d="M144 80C144 71.2 151.2 64 160 64C160 64 160 64 160 64C168.88 64 176 71.2 176 80C176 85.6 176 130.4 176 136C176 144.88 168.88 152 160 152C160 152 160 152 160 152C149.36 147.2 144 141.92 144 136C144 130.4 144 85.6 144 80Z" id="aK1bRfYGI"></path><path d="M344 80C344 71.2 351.2 64 360 64C360 64 360 64 360 64C368.88 64 376 71.2 376 80C376 85.6 376 130.4 376 136C376 144.88 368.88 152 360 152C360 152 360 152 360 152C349.36 147.2 344 141.92 344 136C344 130.4 344 85.6 344 80Z" id="bCxvDjSN6"></path><text id="a1BuH26O8O" x="20" y="4" font-size="207" font-family="Open Sans" font-weight="normal" font-style="normal" letter-spacing="0" alignment-baseline="before-edge" transform="matrix(1 0 0 1 177.5 187.99999999999997)" style="line-height:100%" xml:space="preserve" dominant-baseline="text-before-edge"><tspan x="20" dy="0em" alignment-baseline="before-edge" dominant-baseline="text-before-edge" text-anchor="start">　</tspan></text><style id="opensansnormalnormal">
    @font-face {
    font-family: "Open Sans";
    font-weight: normal;
    src: url("https://fonts.gstatic.com/s/opensans/v13/IgZJs4-7SA1XX_edsoXWog.ttf");
    }
    </style><text id="b1vzm2oUeJ" x="20" y="4" font-size="207" font-family="Open Sans" font-weight="normal" font-style="normal" letter-spacing="0" alignment-baseline="before-edge" transform="matrix(1 0 0 1 177.5 187.99999999999997)" style="line-height:100%" xml:space="preserve" dominant-baseline="text-before-edge"><tspan x="20" dy="0em" alignment-baseline="before-edge" dominant-baseline="text-before-edge" text-anchor="start">፩</tspan></text><path d="M344 80C344 71.2 351.2 64 360 64C360 64 360 64 360 64C368.88 64 376 71.2 376 80C376 85.6 376 130.4 376 136C376 144.88 368.88 152 360 152C360 152 360 152 360 152C349.36 147.2 344 141.92 344 136C344 130.4 344 85.6 344 80Z" id="d6Degl7IB1"></path></defs><g><g><use xlink:href="#aC6QaQSYF" opacity="1" fill="#77b3d4" fill-opacity="1"></use><g><use xlink:href="#aC6QaQSYF" opacity="1" fill-opacity="0" stroke="#000000" stroke-width="1" stroke-opacity="0"></use></g></g><g><use xlink:href="#iJKkCzqFq" opacity="1" fill="#000000" fill-opacity="0"></use><g><use xlink:href="#iJKkCzqFq" opacity="1" fill-opacity="0" stroke="#000000" stroke-width="1" stroke-opacity="0"></use></g></g><g><use xlink:href="#azNfdR2NY" opacity="1" fill="#231f20" fill-opacity="1"></use><g><use xlink:href="#azNfdR2NY" opacity="1" fill-opacity="0" stroke="#000000" stroke-width="1" stroke-opacity="0"></use></g></g><g><use xlink:href="#a96smIpqg" opacity="1" fill="#000000" fill-opacity="0"></use><g><use xlink:href="#a96smIpqg" opacity="1" fill-opacity="0" stroke="#000000" stroke-width="1" stroke-opacity="0"></use></g></g><g><use xlink:href="#d4FLEW6Mrt" opacity="1" fill="#ffffff" fill-opacity="1"></use><g><use xlink:href="#d4FLEW6Mrt" opacity="1" fill-opacity="0" stroke="#000000" stroke-width="1" stroke-opacity="0"></use></g></g><g><use xlink:href="#d23iHChyKo" opacity="1" fill="#000000" fill-opacity="0"></use><g><use xlink:href="#d23iHChyKo" opacity="1" fill-opacity="0" stroke="#000000" stroke-width="1" stroke-opacity="0"></use></g></g><g><use xlink:href="#ahpt7MwQM" opacity="1" fill="#231f20" fill-opacity="1"></use><g><use xlink:href="#ahpt7MwQM" opacity="1" fill-opacity="0" stroke="#000000" stroke-width="1" stroke-opacity="0"></use></g></g><g><use xlink:href="#fgcybjxbX" opacity="1" fill="#000000" fill-opacity="0"></use><g><use xlink:href="#fgcybjxbX" opacity="1" fill-opacity="0" stroke="#000000" stroke-width="1" stroke-opacity="0"></use></g></g><g><use xlink:href="#fdvQNmrb0" opacity="1" fill="#c75c5c" fill-opacity="1"></use><g><use xlink:href="#fdvQNmrb0" opacity="1" fill-opacity="0" stroke="#000000" stroke-width="1" stroke-opacity="0"></use></g></g><g><use xlink:href="#a18H1wkcC8" opacity="1" fill="#000000" fill-opacity="0"></use><g><use xlink:href="#a18H1wkcC8" opacity="1" fill-opacity="0" stroke="#000000" stroke-width="1" stroke-opacity="0"></use></g></g><g><use xlink:href="#aNaQFflH2" opacity="1" fill="#231f20" fill-opacity="1"></use><g><use xlink:href="#aNaQFflH2" opacity="1" fill-opacity="0" stroke="#000000" stroke-width="1" stroke-opacity="0"></use></g></g><g><use xlink:href="#c2Op4S9jo" opacity="1" fill="#000000" fill-opacity="0"></use><g><use xlink:href="#c2Op4S9jo" opacity="1" fill-opacity="0" stroke="#000000" stroke-width="1" stroke-opacity="0"></use></g></g><g><use xlink:href="#cQCFsse2i" opacity="1" fill="#231f20" fill-opacity="1"></use><g><use xlink:href="#cQCFsse2i" opacity="1" fill-opacity="0" stroke="#000000" stroke-width="1" stroke-opacity="0"></use></g></g><g><use xlink:href="#c1UupBvqDU" opacity="1" fill="#000000" fill-opacity="0"></use><g><use xlink:href="#c1UupBvqDU" opacity="1" fill-opacity="0" stroke="#000000" stroke-width="1" stroke-opacity="0"></use></g></g><g><use xlink:href="#a1dYyrtPvV" opacity="1" fill="#e0e0d1" fill-opacity="1"></use><g><use xlink:href="#a1dYyrtPvV" opacity="1" fill-opacity="0" stroke="#000000" stroke-width="1" stroke-opacity="0"></use></g></g><g><use xlink:href="#aK1bRfYGI" opacity="1" fill="#000000" fill-opacity="0"></use><g><use xlink:href="#aK1bRfYGI" opacity="1" fill-opacity="0" stroke="#000000" stroke-width="1" stroke-opacity="0"></use></g></g><g><use xlink:href="#bCxvDjSN6" opacity="1" fill="#e0e0d1" fill-opacity="1"></use><g><use xlink:href="#bCxvDjSN6" opacity="1" fill-opacity="0" stroke="#000000" stroke-width="1" stroke-opacity="0"></use></g></g><g id="d6a5cy8DoC"><use xlink:href="#a1BuH26O8O" opacity="1" fill="#000305" fill-opacity="1"></use></g><g id="cbMKNNVAH"><use xlink:href="#b1vzm2oUeJ" opacity="1" fill="#000305" fill-opacity="1"></use></g><g><use xlink:href="#d6Degl7IB1" opacity="1" fill="#000000" fill-opacity="0"></use><g><use xlink:href="#d6Degl7IB1" opacity="1" fill-opacity="0" stroke="#000000" stroke-width="1" stroke-opacity="0"></use></g></g></g></svg>